<svg width="375" height="385" viewBox="0 0 375 385" fill="none" xmlns="http://www.w3.org/2000/svg">
<g clip-path="url(#clip0_80_103)">
<g opacity="0.8">
<path opacity="0.8" d="M212.455 290.394C207.42 292.38 201.121 295.072 198.243 297.199C193.779 300.365 190.146 304.562 187.652 309.433C184.678 315.487 185.466 320.76 189.943 325.795C190.174 326.063 190.404 326.442 190.687 326.777C191.103 327.297 191.103 327.416 190.412 327.416H189.162C182.231 327.416 175.299 327.729 168.375 327.744C166.025 327.744 165.535 328.42 165.527 330.77C165.527 334.653 165.527 339.345 165.527 343.235C165.527 345.92 161.809 347.452 158.224 347.66C153.933 347.913 151.597 342.179 151.694 338.966C151.818 337.028 151.698 335.081 151.337 333.173C150.274 328.391 149.106 324.568 149.054 319.6C149.009 313.859 149.034 308.112 149.128 302.361C149.093 300.936 149.536 299.541 150.385 298.397C151.07 297.673 151.485 296.735 151.56 295.742C151.709 294.113 150.675 292.886 149.686 292.997C148.697 293.109 147.797 290.38 147.455 286.899C147.21 284.801 147.12 282.688 147.187 280.577C147.28 278.61 147.702 276.671 148.437 274.843C148.585 274.457 150.764 268.715 149.686 268.946L148.414 269.214C147.671 269.362 147.113 266.06 147.098 261.836C147.098 259.278 147.098 256.734 147.195 254.191C147.416 251.416 146.698 248.647 145.157 246.33C144.324 245.125 144.346 244.18 145.231 242.879C145.807 242.078 146.207 241.164 146.406 240.198C146.604 239.232 146.597 238.234 146.384 237.271C145.64 234.096 140.263 234.296 139.691 237.584C139.393 239.361 139.876 241.302 141.104 243.384C141.277 243.694 141.379 244.038 141.402 244.392C141.425 244.746 141.369 245.1 141.237 245.43C138.925 248.687 138.672 252.324 138.828 256.139C138.984 259.954 138.865 263.651 138.828 267.406C138.828 267.711 138.828 268.009 138.828 268.306C138.791 268.797 138.642 269.236 138.493 269.295C138.407 269.335 138.313 269.358 138.218 269.362C137.601 269.236 136.983 269.095 136.366 268.953C136.046 268.879 138.062 279.031 138.099 279.581C138.209 281.895 138.16 284.213 137.95 286.52C137.645 290.342 136.247 293.317 134.819 293.131C134.451 293.082 134.076 293.138 133.739 293.293C133.401 293.448 133.114 293.696 132.912 294.007C132.709 294.319 132.599 294.681 132.595 295.053C132.59 295.424 132.691 295.79 132.886 296.106C133.383 297.136 134.111 298.036 135.013 298.739C136.111 299.718 136.808 301.069 136.969 302.532C137.147 312.817 137.712 322.381 135.384 332.355C134.914 334.474 134.591 336.624 134.418 338.788C134.105 342.372 132.514 345.347 130.997 346.403C130.253 346.916 130 347.712 130 349.438V372.745H204.468C204.505 372.314 204.758 368.863 204.758 368.41C204.758 353.275 210.611 341.019 217.706 341.019C217.877 341.019 218.048 341.019 218.219 341.019V289.457C216.257 289.419 214.304 289.736 212.455 290.394Z" fill="#143F6B"/>
<path opacity="0.8" d="M302.377 346.366C301.983 346.254 302.578 335.21 302.422 334.31C301.581 329.469 300.28 325.899 300.265 320.842C300.265 315.093 300.265 309.344 300.354 303.595C300.354 302.301 300.867 300.546 301.79 299.802C302.221 299.485 302.554 299.052 302.747 298.552C302.941 298.053 302.988 297.509 302.883 296.984C302.667 295.236 301.232 293.957 299.856 294.068C298.48 294.18 297.312 291.302 297.402 287.524C297.433 285.237 297.682 282.958 298.145 280.719C298.647 278.921 299.325 277.177 300.168 275.513C301.403 272.664 300.912 270.165 300.414 270.307C300.139 270.374 299.871 270.441 299.566 270.5C299.492 270.5 299.439 270.5 299.328 270.433C299.216 270.366 299.068 269.942 299.053 269.444C299.053 269.154 299.053 268.849 299.053 268.552C299.053 264.788 298.949 261.025 299.097 257.277C299.246 253.529 299.016 249.84 296.703 246.568C296.571 246.238 296.515 245.884 296.538 245.53C296.561 245.176 296.663 244.832 296.837 244.522C298.071 242.41 298.554 240.499 298.257 238.729C297.699 235.412 292.307 235.241 291.564 238.416C291.351 239.378 291.343 240.374 291.54 241.338C291.738 242.303 292.136 243.216 292.709 244.017C293.601 245.318 293.624 246.248 292.791 247.475C291.254 249.797 290.544 252.569 290.775 255.343C290.857 257.879 290.872 260.423 290.857 262.989C290.857 267.213 290.255 270.515 289.548 270.366C288.842 270.217 288.232 271.564 288.804 273.252C289.08 274.107 289.451 274.91 289.875 276.271C290.299 277.632 290.098 279.484 290.098 280.964C290.098 281.47 290.046 284.571 290.017 287.658C289.972 291.376 289.273 294.247 288.314 294.128C287.354 294.009 286.283 295.228 286.432 296.857C286.509 297.848 286.927 298.781 287.614 299.497C288.458 300.63 288.898 302.012 288.864 303.424C288.961 309.746 288.998 316.067 288.909 322.389C288.842 327.595 286.387 332.161 286.268 337.218C286.134 343.071 286.216 347.63 279.315 348.017C276.384 348.21 269.698 347.444 269.698 343.168C269.698 343.027 269.542 338.118 269.542 337.709C269.594 333.827 269.542 335.277 269.542 331.395C269.542 328.115 269.245 327.468 266.039 327.468H245.796C245.404 327.489 245.014 327.536 244.628 327.61C243.981 327.714 243.758 327.334 244.189 326.948C244.472 326.68 244.702 326.479 244.933 326.204C249.395 321.281 250.459 315.718 247.365 309.842C245.673 306.734 243.58 303.861 241.14 301.297C237.533 297.43 231.97 294.15 226.645 291.324C224.015 290.067 221.126 289.443 218.211 289.502V341.048C225.076 341.621 232.342 358.109 230.401 372.745H305.196V350.501C305.196 347.296 305.605 347.296 302.377 346.366Z" fill="#143F6B"/>
</g>
<g opacity="0.8">
<path opacity="0.8" d="M386.58 351C386.58 351 386.58 350.55 386.71 349.84C387 347.95 387.96 344.14 391.06 341.79C391.735 341.293 392.475 340.893 393.26 340.6L393.17 287.09L383.31 294V309.62L356 329.21L356.06 323.21L379.29 308.07L379.48 291.52L393.34 282.52V267.02V259.22C392.9 259.22 392.46 259.22 392.01 259.22C391.56 259.22 391.35 259.22 391.01 259.22C390.09 259.22 389.14 259.22 388.23 259.22L388.37 245.9C389.28 245.9 390.23 245.9 391.15 245.9H392.15C392.55 245.9 392.94 245.9 393.34 245.9V122.14C392.87 122.36 392.01 122.81 392.01 122.81L391.83 133.81C385.2 139.11 385.03 155.52 385.03 155.52C385.03 155.52 385.43 175.83 382.37 182.97C379.31 190.11 366.91 200.13 356.95 213.74C351.08 221.74 346.95 240.59 345.4 248.32C344.97 250.53 344.95 250.6 344.95 250.6C344.95 250.6 344.04 251.5 341.95 253.28C339.86 255.06 341.54 262.51 341.54 262.51L340.54 271.75C339.59 273.588 338.369 275.273 336.92 276.75C335.92 277.55 335.64 280.39 335.57 282.81C335.57 284.41 335.57 285.81 335.57 286.35C335.57 286.49 335.57 286.59 335.57 286.59C332.29 281.19 324.93 275.15 324.93 275.15C324.93 275.15 325.44 256.94 325.19 250.15C325.187 248.221 324.733 246.32 323.865 244.598C322.997 242.875 321.739 241.38 320.19 240.23C317.19 242.31 315.35 248.55 315.35 248.55L313.56 274.72C313.56 274.72 306.26 277.62 298.15 291.65C291.51 303.14 291.58 321.44 291.58 321.44C291.58 321.44 289.17 322.22 291.16 326.61L291.47 331.38L286.47 341.71H282.86L269.27 341.89L268.5 401.33L334.14 401.44L347.96 401.58L393.25 401.33V391.07H390.53L386.15 391.02V387.77L386.58 351ZM310.46 341.86L300.92 341.78L301.03 331.23C301.03 331.23 301.27 326.23 305.94 326.3C310.61 326.37 310.57 331.3 310.57 331.3L310.46 341.86ZM330.46 342.03L320.91 341.95L321.03 331.44C321.03 331.44 321.2 326.44 325.92 326.5C330.64 326.56 330.57 331.5 330.57 331.5L330.46 342.03ZM334.74 356.64L334.41 387.39L334.34 390.76L334.68 349.4H334.82L334.74 356.64ZM377 246.43L376.86 259.76C373.047 260.13 369.257 260.714 365.51 261.51L365.65 248.18C369.401 247.404 373.189 246.82 377 246.43ZM357.44 250.23L357.3 263.57C354.237 264.479 351.232 265.571 348.3 266.84L348.44 253.5C351.357 252.229 354.35 251.137 357.4 250.23H357.44ZM373.54 383.34L373.46 390.86L355.91 390.67L356 374.3L356.17 358.35C356.17 358.35 356.44 351.3 362.32 349.61C363.249 349.358 364.208 349.237 365.17 349.25C366.115 349.255 367.054 349.393 367.96 349.66C373.79 351.45 373.72 358.54 373.72 358.54L373.54 383.34Z" fill="#143F6B"/>
</g>
<g opacity="0.8">
<path opacity="0.8" d="M6.32993 195.96L3.70993 194.82L-3.29007 215.71L-17.4501 219.87L-16.7501 222.98L-1.47008 218.49V218.04L-1.11008 218.2L6.32993 195.96Z" fill="#143F6B"/>
<path opacity="0.8" d="M98.57 321.58L97.7899 324.21H95.7299V327.79H92.59V318.42H91.19V313.42H90.49L89.96 309.79L89.2599 305.02L88.56 309.79L88.03 313.42H87.31V318.42H86V327.79H81.43V324.21H79.43L78.66 321.58L77.82 318.78L77 321.58L76.23 324.21H74.23V327.79H71V318.93H69.63V313.71H68.93L68.39 309.92L67.69 304.99L66.98 309.92L66.46 313.71H65.75V318.93H64.37V327.79H59.76V324.21H57.76L56.98 321.58L56.16 318.78L55.33 321.58L54.55 324.21H52.55V327.79H49.45V318.42H48V313.42H47.29L46.75 309.79L46 305L45.3 309.77L44.76 313.4H44.05V318.4H42.67V327.77H38.03V324.19H36.03L35.26 321.56L34.43 318.76L33.61 321.56L32.84 324.19H32.07L31.87 249.39H35V175.53H31.87V161.35H31.24L15.9 134.86H15.63V108.54H15.47L-4.61004 63.8097V50.7197H-5.00004V63.9397L-25 108.54H-25.18V135.3L-40.78 161.3H-41.39V175.48H-44.54V249.36H-41.39L-41.45 400.13H99.2899V319.05L98.57 321.58ZM-3.54003 237.88C-3.99003 237.88 -4.45004 237.88 -4.89004 237.81C-17.41 237 -27.35 225.18 -27.35 210.67C-27.35 196.16 -17.41 184.33 -4.89004 183.53C-4.45004 183.53 -3.99003 183.46 -3.54003 183.46C9.59997 183.46 20.27 195.65 20.27 210.67C20.27 225.69 9.59997 237.88 -3.54003 237.88Z" fill="#143F6B"/>
<path opacity="0.8" d="M278.61 310V297H278.29C277.929 295.83 277.283 294.768 276.41 293.91C275.537 293.051 274.465 292.422 273.29 292.08L272.29 288.08L270.81 282.17L269.31 288.08L268.31 292.08C267.26 292.394 266.293 292.936 265.477 293.667C264.661 294.398 264.017 295.301 263.59 296.31H262.74V274.82H260.39V262.82H258.75L257.7 257.59L255.7 247.59L253.7 257.59L252.65 262.82H250.99V274.82H248.65V296.37H243.65V306.72L237.65 310.47V327H233.7V323.38H231.63L230.85 320.73L230 317.89L229.18 320.73L228.39 323.38H226.34V327H223V317.53H221.63V312.45H220.9L220.37 308.77L219.65 303.96L218.94 308.77L218.41 312.45H217.7V317.53H216.3V327H211.93V323.38H209.86L209.06 320.73L208.24 317.89L207.41 320.73L206.62 323.38H204.55V327H201.15V317H199.76V312.11H199L198.47 308.57L197.75 303.94L197.05 308.57L196.52 312.11H195.8V317H194.42V327H190V323.38H187.93L187.14 320.73L186.33 317.89L185.48 320.73L184.69 323.38H182.62V327H179.27V317H177.9V312.11H177.18L176.64 308.57L175.93 303.94L175.22 308.57L174.69 312.11H174V317H172.61V327H168.15V323.38H166.09L165.3 320.73L164.46 317.89L163.64 320.73L162.85 323.38H160.77V327H157.47V317.53H156.08V312.45H155.36L154.82 308.77L154.11 303.96L153.98 304.87V306L153.44 309.72L152.91 313.35H152.2V318.35H150.82V327.72H146.37V324.14H144.37L143.6 321.51L142.77 318.71L141.95 321.51L141.17 324.14H139.17V327.72H135.93V318.1H134.55V313.16H133.84L133.31 309.59L132.61 304.92L131.92 309.59L131.38 313.16H130.67V318.1H129.3V327.72H124.81V324.14H122.81L122.03 321.51L121.21 318.71L120.37 321.51L119.6 324.14H117.55V327.72H114.35V318.86H112.98V313.64H112.27L111.74 309.85L111.03 304.92L110.34 309.85L109.81 313.64H109.09V318.86H107.72V327.72H103V324.14H101L100.23 321.51L99.4 318.71L99.32 318.98L99.27 400.11H279.17L279.27 327.3L279.94 326.97V312.32L278.61 310Z" fill="#143F6B"/>
</g>
<g opacity="0.73">
<path opacity="0.73" d="M33.2002 317.43C33.2002 317.43 42.4002 282.84 42.9502 273.78H53.8502V0H53.4902V15.64C53.2223 15.7361 52.9894 15.9104 52.8218 16.1404C52.6542 16.3705 52.5595 16.6455 52.5502 16.93V31.48H51.4602C50.821 31.4442 50.1933 31.6611 49.7125 32.0839C49.2318 32.5067 48.9364 33.1015 48.8902 33.74C48.8926 34.1234 48.9961 34.4994 49.1902 34.83H48.0002C47.1086 34.786 46.2354 35.0933 45.5679 35.686C44.9004 36.2787 44.4919 37.1095 44.4302 38V40.22C44.4322 40.7303 44.5703 41.2308 44.8302 41.67C44.1577 41.8446 43.5588 42.2302 43.1215 42.7701C42.6841 43.31 42.4313 43.9759 42.4002 44.67C42.4002 44.67 44.0002 57.48 46.0002 57.48H46.4602C46.9602 127.87 32.8402 221.48 29.1502 244.68H26.4002C25.4993 244.628 24.6144 244.934 23.9382 245.532C23.262 246.129 22.8494 246.97 22.7902 247.87C22.7902 247.87 24.4102 253.99 26.4002 253.99H27.6002C23.8102 273.71 15.6002 295.91 6.0602 316.94H-2.5498V335.12C-13.7425 357.64 -26.0923 379.566 -39.5498 400.81H-0.199799C0.460201 373.45 24.3702 351.45 53.8502 351.3V317.43H33.2002Z" fill="#143F6B"/>
<path opacity="0.73" d="M110.64 334.61V316.94H102.28C92.7902 295.94 84.5202 273.71 80.7402 253.99H82.2302C84.2302 253.99 85.8302 247.87 85.8302 247.87C85.7736 246.97 85.3631 246.13 84.6885 245.532C84.0139 244.934 83.1301 244.628 82.2302 244.68H79.1702C75.4702 221.45 61.3502 127.87 61.8602 57.48H62.3302C64.3302 57.48 65.9302 44.68 65.9302 44.68C65.8997 43.9872 65.6484 43.3223 65.213 42.7825C64.7775 42.2428 64.1809 41.8564 63.5102 41.68C63.767 41.24 63.9017 40.7394 63.9002 40.23V38C63.8411 37.103 63.4292 36.266 62.7545 35.6719C62.0799 35.0779 61.1974 34.7752 60.3002 34.83H59.1402C59.3301 34.4976 59.4333 34.1228 59.4402 33.74C59.394 33.1015 59.0986 32.5067 58.6179 32.0839C58.1371 31.6611 57.5094 31.4442 56.8702 31.48H55.7902V16.93C55.7809 16.6455 55.6862 16.3705 55.5186 16.1404C55.351 15.9104 55.1181 15.7361 54.8502 15.64V0H53.8502V273.78H65.1202C65.1202 273.78 71.6202 308.59 75.1202 317.43H53.8502V351.3H54.2002C83.8102 351.3 107.87 373.38 108.53 400.82H147.86C134.316 379.409 121.893 357.309 110.64 334.61Z" fill="#143F6B"/>
</g>
<g opacity="0.57">
<path opacity="0.57" d="M151.67 371.42L152.19 366.42C152.356 366.147 152.461 365.843 152.5 365.526C152.539 365.21 152.51 364.889 152.416 364.585C152.321 364.28 152.163 363.999 151.952 363.76C151.74 363.522 151.481 363.331 151.19 363.2L150.5 358.88L144.6 358.24C141.83 353.06 139.05 335.39 139.05 335.39L139.23 333.02C139.373 331.348 140.037 329.763 141.13 328.49L137.32 326.77L136.79 323.77L129.69 321.62L123.97 300.49L124.97 298.78L124.28 296.41L125.66 292.53L122.54 291.23L122.02 286.71L118.38 285.2C117.51 279.38 109.54 259.34 109.54 259.34L107.8 256.54L108.8 252.65C86.48 243.49 58.29 242.7 37.02 243.92V291.67H37.11C39.98 291.67 42.31 294.62 42.31 298.26V309C42.3124 309.695 42.225 310.387 42.05 311.06C40.35 311.06 38.7 311.19 37.05 311.25V326.9C37.9233 327.69 38.6157 328.659 39.0799 329.741C39.5442 330.823 39.7693 331.993 39.74 333.17V345.51C39.7562 347.131 39.3198 348.724 38.48 350.11H37.05V397.68H155.48C153.92 390.17 151.67 371.42 151.67 371.42ZM99.05 301.54C99.05 298.24 101.2 295.54 103.86 295.54C106.52 295.54 108.67 298.22 108.67 301.54V315.84C105.5 315.21 102.28 314.66 99.05 314.16V301.54ZM83.87 264.75H88.56V272.07H83.87V264.75ZM83.44 299C83.44 295.68 85.66 293 88.38 293C91.1 293 93.38 295.7 93.38 299V313.37C90.1 312.95 86.8034 312.59 83.49 312.29L83.44 299ZM51.29 262.16H56V269.49H51.33L51.29 262.16ZM53.54 388.66H41.31V374.79C41.31 369.24 44.05 364.73 47.42 364.73C50.79 364.73 53.54 369.24 53.54 374.79V388.66ZM58 346.51C58.0039 347.774 57.7415 349.024 57.23 350.18C53.65 350.18 50.07 350.12 46.52 350.12C46.0287 348.98 45.7768 347.751 45.78 346.51V334.16C45.78 329.98 48.52 326.59 51.9 326.59C55.28 326.59 58 329.98 58 334.16V346.51ZM59.57 310.76C59.575 310.847 59.575 310.933 59.57 311.02C55.91 310.96 52.27 310.94 48.67 311.02V297.5C48.67 293.76 51.11 290.71 54.12 290.71C57.13 290.71 59.59 293.76 59.59 297.5L59.57 310.76ZM72.84 388.66H60.55V375.8C60.55 370.8 63.29 366.68 66.67 366.68C70.05 366.68 72.79 370.76 72.79 375.8L72.84 388.66ZM75.95 347.15C75.9533 348.322 75.7291 349.483 75.29 350.57C71.63 350.45 67.95 350.36 64.29 350.29C63.9238 349.284 63.7376 348.221 63.74 347.15V334.81C63.74 330.63 66.48 327.24 69.84 327.24C73.2 327.24 75.96 330.63 75.96 334.81L75.95 347.15ZM77.2 310C77.2002 310.599 77.1331 311.196 77 311.78C73.6267 311.553 70.2567 311.373 66.89 311.24C66.8295 310.829 66.7994 310.415 66.8 310V299.24C66.8 295.6 69.13 292.66 72 292.66C74.87 292.66 77.2 295.6 77.2 299.24V310ZM91.2 388.67H79V375.77C79 370.22 81.74 365.72 85.11 365.72C88.48 365.72 91.22 370.22 91.22 375.77L91.2 388.67ZM94.07 348.13C94.0706 349.228 93.8777 350.318 93.5 351.35C89.86 351.15 86.18 350.98 82.5 350.83C82.2321 349.955 82.0973 349.045 82.1 348.13V335.79C82.1 331.6 84.78 328.21 88.1 328.21C91.42 328.21 94.1 331.6 94.1 335.79L94.07 348.13ZM108.63 388.67H96.45V375.12C96.45 369.57 99.18 365.06 102.55 365.06C105.92 365.06 108.67 369.57 108.67 375.12L108.63 388.67ZM110.71 349.43C110.713 350.475 110.541 351.512 110.2 352.5C106.52 352.187 102.793 351.913 99.02 351.68C98.8374 350.944 98.7467 350.188 98.75 349.43V337.07C98.75 332.89 101.42 329.51 104.75 329.51C108.08 329.51 110.75 332.89 110.75 337.07L110.71 349.43ZM112.53 304.59C112.53 301.22 114.63 298.49 117.21 298.49C119.79 298.49 121.89 301.22 121.89 304.59V318.95C118.83 318.11 115.7 317.35 112.53 316.66V304.59ZM113.37 388.67L112.6 377.28C112.24 371.99 114.1 367.48 116.73 367.2C119.36 366.92 121.8 370.99 122.16 376.29L123 388.67H113.37ZM124 353.83C120.76 353.46 117.45 353.13 114.09 352.83C114.01 352.384 113.956 351.933 113.93 351.48L113.26 339.17C113.03 335 115.17 331.43 118.04 331.17C120.91 330.91 123.41 334.12 123.64 338.29L124.31 350.6C124.373 351.686 124.269 352.776 124 353.83ZM127.18 388.66L126.42 377.41C126.08 372.22 127.53 367.82 129.67 367.6C131.81 367.38 133.82 371.41 134.17 376.6L134.98 388.65L127.18 388.66ZM135 355.24C132.47 354.87 129.9 354.54 127.28 354.24C127.28 354.13 127.28 354.01 127.28 353.89L126.65 342.3C126.43 338.37 128 335.04 130.15 334.86C132.3 334.68 134.23 337.72 134.45 341.64L135 353.2C135.056 353.879 135.056 354.561 135 355.24ZM137.39 388.66L136.45 378.21C135.98 373.03 137.33 368.59 139.45 368.29C141.57 367.99 143.69 371.96 144.16 377.14L145.16 388.66H137.39Z" fill="#143F6B"/>
<path opacity="0.57" d="M28.84 350.21C27.9676 348.806 27.5132 347.183 27.53 345.53V333.19C27.53 329.01 30.26 325.63 33.64 325.63C34.8969 325.641 36.109 326.098 37.06 326.92V311.27C35.48 311.33 33.87 311.36 32.32 311.44C32.0881 310.648 31.9802 309.825 32 309V298.27C32 294.67 34.28 291.76 37.11 291.69V243.94C26.5885 244.507 16.11 245.699 5.72998 247.51L5.89998 250.51L4.68999 251.59L4.33998 255.25L0.179985 255.9L-13 259.14L-17.86 253.76C-84.44 279.19 -73.09 304.19 -73.09 304.19L-74.6 314.74C-76.1113 316.66 -77.1428 318.912 -77.6089 321.311C-78.075 323.709 -77.9622 326.184 -77.28 328.53L-78.84 339C-84.84 342.77 -81.7 350 -81.7 350L-84.7 366.7C-87.47 368.21 -85.13 371.22 -85.13 371.22L-87.39 397.73H37.06V350.14L28.84 350.21ZM19 262.8H23.68V270.13H19V262.8ZM15.54 298.27C15.54 294.63 17.86 291.68 20.74 291.68C23.62 291.68 25.94 294.63 25.94 298.27V309C25.9428 309.949 25.7734 310.891 25.44 311.78C22.3333 311.973 19.2833 312.187 16.29 312.42C15.7924 311.349 15.5364 310.181 15.54 309V298.27ZM-1.12002 299.89C-1.12002 296.25 1.21998 293.3 4.08998 293.3C6.95998 293.3 9.28998 296.25 9.28998 299.89V310.63C9.29359 311.458 9.16878 312.281 8.91998 313.07C5.71999 313.37 2.61998 313.69 -0.370018 314.01C-0.868774 312.953 -1.12502 311.798 -1.12002 310.63V299.89ZM-11.12 269.06L-6.62002 268.62V276L-11.12 276.43V269.06ZM-15.63 302.79C-15.63 299.16 -13.3 296.21 -10.43 296.21C-7.56001 296.21 -5.23002 299.21 -5.23002 302.79V313.54C-5.23476 313.874 -5.25813 314.208 -5.30002 314.54C-8.85002 314.96 -12.19 315.4 -15.3 315.82C-15.5201 315.063 -15.6312 314.278 -15.63 313.49V302.79ZM-16.47 327.28C-13.1 327.6 -10.59 331.15 -10.85 335.21L-11.62 347.21C-11.6989 348.712 -12.194 350.163 -13.05 351.4L-22.05 351.79C-23.3281 350.166 -23.9459 348.12 -23.78 346.06L-23.01 334.06C-22.78 330 -19.84 327 -16.48 327.28H-16.47ZM-29.29 303.54C-29.03 299.92 -26.5 297.24 -23.64 297.54C-20.78 297.84 -18.64 301.05 -18.92 304.67L-19.69 315.38C-19.72 315.763 -19.7768 316.144 -19.86 316.52C-23.48 317.04 -26.68 317.52 -29.42 318.02C-29.9348 316.827 -30.151 315.526 -30.05 314.23L-29.29 303.54ZM-63 297.82L-64.64 298.9L-63.86 292.76L-62.3 291.76L-63 297.82ZM-50.6 289.82L-52.43 290.36L-52.08 284.36L-50.08 283.28L-50.6 289.82ZM-34.48 276.03L-31.01 274.63L-31.85 282L-35.15 283L-34.48 276.03ZM-18.73 374.91L-19.87 388.63H-32.12V388.24L-30.9 373.66C-30.49 368.73 -27.44 365.01 -24.08 365.35C-20.72 365.69 -18.29 370 -18.71 374.94L-18.73 374.91ZM-2.14001 388.6H-14.35V374.6C-14.35 369.85 -11.61 366.02 -8.23002 366.02C-4.85002 366.02 -2.12002 369.85 -2.12002 374.6L-2.14001 388.6ZM-6.08002 351.07C-6.91853 349.687 -7.35485 348.097 -7.34001 346.48V334.16C-7.34001 329.98 -4.61002 326.59 -1.23002 326.59C2.14998 326.59 4.87999 329.98 4.87999 334.16V346.51C4.88538 347.993 4.52107 349.453 3.81999 350.76C0.433327 350.873 -2.86002 350.987 -6.06001 351.1L-6.08002 351.07ZM16.58 388.63H4.37999V373.51C4.37999 367.95 7.11999 363.45 10.49 363.45C13.86 363.45 16.6 367.95 16.6 373.51L16.58 388.63ZM22.05 345.5C22.0662 347.206 21.5792 348.879 20.65 350.31C17.5 350.37 14.41 350.44 11.36 350.53C10.344 349.062 9.80622 347.315 9.81999 345.53V333.19C9.81999 329.01 12.56 325.63 15.93 325.63C19.3 325.63 22.05 329.01 22.05 333.19V345.5ZM23.05 388.63V373.18C23.05 367.63 25.79 363.12 29.17 363.12C32.55 363.12 35.28 367.63 35.28 373.18V388.66L23.05 388.63Z" fill="#143F6B"/>
</g>
<g opacity="0.8">
<path opacity="0.8" d="M-17.27 395.31C-18.73 387.72 -22.48 370.55 -21.13 366.68C-19.45 361.91 -19.96 358.07 -20.42 352.99C-20.88 347.91 -18.52 342.49 -21.84 340.28C-25.16 338.07 -30.98 338.82 -34.04 339.11C-37.1 339.4 -37.38 339.45 -37.86 347.39C-38.34 355.33 -40.55 365.39 -40.05 366.7C-39.71 367.57 -38.56 382.48 -37.92 391.33C-42.08 390.92 -47.28 390.43 -47.47 390.43C-48.27 378.43 -49.63 358.43 -50.22 353.02C-50.4225 350.707 -50.7867 348.411 -51.31 346.15C-49.6 345.22 -47.52 339.24 -47.31 335.62C-47.04 331.69 -46.82 326.62 -53.93 326.35C-57.39 326.22 -65.76 326.63 -73.65 327.08V345.77L-67.83 345.84C-67.92 348.19 -69.59 376.91 -69.52 390.62H-73.65V403.62H2.93998C2.93998 403.62 -3.05176e-05 399.16 -17.27 395.31Z" fill="#143F6B"/>
</g>
<g opacity="0.88">
<path opacity="0.88" d="M438.8 129.87L425.21 127.66C425.27 126.28 424.63 125.1 423.68 124.9L428.82 85.6499H428.94C429.235 85.3867 429.438 85.0364 429.52 84.6499L430.83 84.8599V84.5199C430.953 83.7005 430.791 82.8637 430.37 82.1499C430.251 81.9561 430.092 81.7893 429.904 81.6601C429.717 81.531 429.504 81.4424 429.28 81.3999L428.06 81.1999L429.25 72.1999L430.69 72.4299C431.128 72.4796 431.571 72.4408 431.994 72.3159C432.417 72.191 432.81 71.9824 433.15 71.7026C433.491 71.4228 433.771 71.0774 433.976 70.687C434.18 70.2966 434.304 69.8691 434.34 69.4299C434.393 68.9659 434.369 68.4963 434.27 68.0399L390.61 60.9299L381.61 130.44C382.821 130.724 383.917 131.371 384.75 132.295C385.583 133.219 386.113 134.376 386.27 135.61H386.12C385.2 135.46 384.3 136.42 384.12 137.76V138.11L385.56 138.34C385.563 138.655 385.689 138.956 385.91 139.18L383.57 157.02H383.36C382.52 156.89 381.7 157.68 381.43 158.84L378.04 158.29L376.74 168.23C377.86 168.501 378.872 169.102 379.647 169.954C380.423 170.806 380.925 171.87 381.09 173.01C380.23 173.01 379.43 173.93 379.27 175.19V175.53L380.71 175.76C380.718 176.074 380.843 176.373 381.06 176.6L378.72 194.44H378.51C377.66 194.3 376.84 195.11 376.57 196.29L373.22 195.75L371.92 205.7C373.033 205.974 374.038 206.575 374.806 207.425C375.574 208.275 376.07 209.336 376.23 210.47C375.36 210.47 374.58 211.37 374.41 212.64V212.98L375.85 213.21C375.851 213.525 375.977 213.827 376.2 214.05L373.86 231.89H373.64C372.75 231.75 371.89 232.65 371.64 233.89L368.33 233.35L367.03 243.35C368.132 243.632 369.127 244.233 369.888 245.078C370.65 245.923 371.145 246.974 371.31 248.1C370.45 248.1 369.65 249.03 369.49 250.28V250.62L370.91 250.86C370.922 251.17 371.047 251.465 371.26 251.69L368.93 269.53H368.72C367.85 269.39 367.04 270.18 366.78 271.38L363.5 270.85L362.21 280.85C363.301 281.138 364.283 281.739 365.035 282.58C365.787 283.421 366.276 284.464 366.44 285.58C365.57 285.58 364.79 286.48 364.63 287.76V288.1L366.06 288.34C366.068 288.651 366.193 288.947 366.41 289.17L364.07 307.01H363.86C363.01 306.86 362.2 307.65 361.94 308.82L358.69 308.29L357.39 318.29C358.477 318.58 359.454 319.183 360.201 320.024C360.947 320.865 361.431 321.907 361.59 323.02C361.256 323.022 360.934 323.142 360.68 323.36C360.16 323.836 359.836 324.488 359.77 325.19V325.53L361.2 325.77C361.208 326.081 361.333 326.378 361.55 326.6L359 344.12H358.79C357.93 343.99 357.11 344.8 356.85 345.97L353.64 345.45L353.12 349.45L408.82 358.52C409.061 358.558 409.307 358.543 409.542 358.478C409.776 358.412 409.994 358.297 410.18 358.14C410.58 357.795 410.837 357.314 410.9 356.79C410.995 356.278 410.886 355.748 410.597 355.315C410.307 354.882 409.86 354.578 409.35 354.47L408.88 354.4C408.94 353.19 408.36 352.15 407.51 352.01H407.29L409.63 334.17C409.765 334.097 409.883 333.997 409.978 333.877C410.072 333.757 410.141 333.618 410.18 333.47L411.62 333.71V333.36C411.8 332.03 411.19 330.81 410.27 330.67H410.21C410.504 329.743 410.996 328.89 411.65 328.17L411.73 328.08L412.66 320.98L413.66 321.15C413.9 321.189 414.146 321.174 414.379 321.107C414.613 321.039 414.828 320.921 415.01 320.76C415.411 320.419 415.671 319.941 415.74 319.42C415.74 319.32 415.74 319.22 415.74 319.12C415.741 318.687 415.616 318.263 415.38 317.9C415.247 317.689 415.07 317.508 414.861 317.37C414.652 317.232 414.417 317.14 414.17 317.1L413.71 317.02C413.71 315.83 413.17 314.81 412.33 314.67H412.11L414.45 296.83C414.585 296.757 414.703 296.657 414.798 296.537C414.892 296.417 414.961 296.278 415 296.13L416.43 296.37L416.48 296.02C416.585 295.327 416.443 294.619 416.08 294.02C415.978 293.848 415.841 293.699 415.677 293.583C415.513 293.468 415.327 293.388 415.13 293.35H415.07C415.37 292.423 415.864 291.57 416.52 290.85L416.59 290.77L417.53 283.67L418.53 283.83C418.771 283.871 419.018 283.859 419.253 283.793C419.488 283.727 419.706 283.61 419.89 283.45C420.295 283.11 420.553 282.626 420.61 282.1C420.62 282.004 420.62 281.906 420.61 281.81C420.615 281.376 420.49 280.951 420.25 280.59C420.115 280.38 419.937 280.201 419.729 280.063C419.521 279.926 419.286 279.833 419.04 279.79L418.58 279.72C418.621 279.111 418.474 278.504 418.16 277.98C418.047 277.806 417.901 277.658 417.729 277.542C417.557 277.427 417.364 277.348 417.16 277.31H416.95L419.28 259.47C419.416 259.401 419.535 259.303 419.63 259.184C419.725 259.065 419.793 258.927 419.83 258.78L421.27 259.02V258.68C421.378 257.988 421.24 257.281 420.88 256.68C420.773 256.502 420.628 256.351 420.455 256.237C420.282 256.122 420.086 256.048 419.88 256.02H419.82C420.12 255.093 420.614 254.24 421.27 253.52L421.35 253.44L422.28 246.33L423.28 246.5C423.519 246.541 423.765 246.528 423.998 246.463C424.232 246.397 424.448 246.28 424.63 246.12C425.036 245.783 425.297 245.304 425.36 244.78C425.36 244.67 425.36 244.57 425.36 244.47C425.36 244.039 425.232 243.617 424.99 243.26C424.855 243.049 424.677 242.869 424.469 242.729C424.261 242.59 424.027 242.495 423.78 242.45L423.33 242.39C423.46 241.09 422.86 239.95 421.97 239.81H421.75L424.09 221.97C424.225 221.897 424.343 221.797 424.438 221.677C424.532 221.557 424.601 221.418 424.64 221.27L426.08 221.51V221.16C426.185 220.467 426.043 219.759 425.68 219.16C425.571 218.985 425.425 218.835 425.252 218.721C425.08 218.607 424.885 218.532 424.68 218.5H424.62C424.921 217.576 425.412 216.724 426.06 216L426.14 215.92L427.08 208.82L428.08 208.98C428.321 209.023 428.568 209.012 428.804 208.946C429.039 208.88 429.257 208.762 429.44 208.6C429.842 208.261 430.099 207.782 430.16 207.26C430.255 206.749 430.148 206.221 429.86 205.788C429.573 205.355 429.128 205.051 428.62 204.94L428.15 204.87C428.2 203.65 427.62 202.61 426.77 202.48H426.56L428.9 184.63C429.164 184.48 429.358 184.232 429.44 183.94L430.88 184.18V183.84C431.05 182.49 430.45 181.28 429.52 181.13H429.46C429.764 180.205 430.258 179.353 430.91 178.63L430.99 178.55L431.92 171.45L432.92 171.61C433.161 171.65 433.408 171.637 433.643 171.572C433.878 171.506 434.095 171.389 434.28 171.23C434.68 170.885 434.937 170.404 435 169.88C435 169.78 435 169.68 435 169.58C435.003 169.147 434.878 168.722 434.64 168.36C434.501 168.155 434.322 167.979 434.115 167.843C433.907 167.708 433.674 167.615 433.43 167.57L432.96 167.49C432.993 166.9 432.847 166.315 432.54 165.81C432.432 165.633 432.286 165.481 432.114 165.365C431.941 165.25 431.745 165.173 431.54 165.14H431.33L434.18 147C434.313 146.927 434.43 146.829 434.525 146.71C434.619 146.592 434.689 146.456 434.73 146.31L436.16 146.54V146.2C436.268 145.508 436.13 144.801 435.77 144.2C435.663 144.022 435.518 143.87 435.345 143.754C435.172 143.638 434.976 143.562 434.77 143.53L434.39 143.47C434.707 142.467 435.239 141.545 435.95 140.77L436.87 133.77L438.19 133.99C438.431 134.03 438.678 134.017 438.913 133.952C439.148 133.886 439.365 133.769 439.55 133.61C439.952 133.267 440.21 132.785 440.27 132.26C440.275 132.163 440.275 132.067 440.27 131.97C440.31 131.503 440.185 131.037 439.916 130.653C439.647 130.27 439.252 129.992 438.8 129.87ZM419.71 136.54C421.71 136.88 423.25 138.98 423.53 141.61H423.34C423.147 141.585 422.951 141.602 422.765 141.658C422.578 141.715 422.406 141.811 422.26 141.94C421.74 142.415 421.419 143.068 421.36 143.77L421.31 144.11L422.75 144.34C422.753 144.653 422.874 144.953 423.09 145.18L420.75 163H420.55C420.355 162.971 420.155 162.986 419.966 163.045C419.777 163.104 419.605 163.205 419.46 163.34C419.027 163.729 418.732 164.248 418.62 164.82L413.41 163.97C413.442 163.374 413.296 162.782 412.99 162.27C412.88 162.096 412.733 161.949 412.561 161.837C412.388 161.724 412.194 161.651 411.99 161.62H411.78L414.12 143.78C414.253 143.707 414.37 143.609 414.465 143.49C414.559 143.372 414.629 143.236 414.67 143.09L416.1 143.32L416.15 142.98C416.255 142.287 416.113 141.579 415.75 140.98C415.641 140.804 415.495 140.654 415.323 140.54C415.15 140.426 414.955 140.351 414.75 140.32H414.5C415.44 137.89 417.42 136.32 419.5 136.68L419.71 136.54ZM417.85 181.69C417.848 181.846 417.878 182.002 417.939 182.146C417.999 182.29 418.088 182.421 418.2 182.53L415.86 200.37H415.65C414.8 200.24 413.97 201.04 413.71 202.22L408.51 201.38C408.51 200.16 407.99 199.12 407.13 198.99H406.92L409.26 181.15C409.394 181.08 409.511 180.984 409.606 180.867C409.7 180.75 409.77 180.615 409.81 180.47L411.24 180.7V180.36C411.41 179.05 410.83 177.86 409.95 177.67C410.85 175.41 412.68 174.01 414.55 174.31H414.71C416.59 174.62 417.98 176.54 418.27 178.99C417.4 178.99 416.57 179.89 416.4 181.17V181.51L417.85 181.69ZM412.94 219.11C412.95 219.42 413.074 219.716 413.29 219.94L411 237.78H410.79C409.9 237.64 409.04 238.55 408.79 239.78L403.61 238.93C403.74 237.64 403.14 236.5 402.25 236.36H402.04L404.38 218.52C404.514 218.45 404.631 218.352 404.724 218.233C404.817 218.114 404.884 217.977 404.92 217.83L406.36 218.07V217.72C406.468 217.028 406.33 216.321 405.97 215.72C405.764 215.396 405.442 215.164 405.07 215.07C405.98 212.8 407.8 211.41 409.68 211.72H409.84C411.72 212.03 413.11 213.96 413.39 216.42C413.209 216.406 413.027 216.43 412.856 216.488C412.684 216.546 412.526 216.639 412.39 216.76C411.879 217.237 411.559 217.884 411.49 218.58V218.92L412.94 219.11ZM408 256.71C408.003 256.864 408.037 257.015 408.099 257.156C408.16 257.296 408.249 257.424 408.36 257.53L406 275.38H405.79C405.593 275.353 405.393 275.37 405.203 275.429C405.013 275.487 404.838 275.587 404.69 275.72C404.256 276.126 403.959 276.657 403.84 277.24L398.65 276.4C398.7 275.18 398.12 274.14 397.27 274H397.05L399.4 256.16C399.533 256.089 399.65 255.99 399.743 255.872C399.836 255.753 399.903 255.616 399.94 255.47L401.38 255.71V255.37C401.488 254.678 401.35 253.971 400.99 253.37C400.789 253.046 400.47 252.813 400.1 252.72C401 250.45 402.82 249.06 404.7 249.36H404.86C406.74 249.67 408.13 251.59 408.41 254.05C408.229 254.039 408.047 254.064 407.875 254.124C407.703 254.184 407.545 254.278 407.41 254.4C406.895 254.874 406.575 255.523 406.51 256.22V256.56L408 256.71ZM403.1 294.12C403.101 294.435 403.227 294.737 403.45 294.96L401.11 312.8H400.89C400.696 312.774 400.499 312.792 400.313 312.85C400.126 312.909 399.955 313.008 399.81 313.14C399.377 313.529 399.082 314.048 398.97 314.62L393.76 313.77C393.76 312.58 393.23 311.56 392.39 311.42H392.17L394.51 293.59C394.646 293.519 394.765 293.419 394.86 293.299C394.955 293.178 395.023 293.039 395.06 292.89L396.5 293.13V292.78C396.605 292.087 396.463 291.379 396.1 290.78C395.898 290.457 395.58 290.224 395.21 290.13C396.11 287.87 397.94 286.48 399.81 286.78H399.97C401.85 287.09 403.25 289.01 403.53 291.47C403.349 291.459 403.167 291.484 402.995 291.544C402.823 291.604 402.665 291.698 402.53 291.82C402.018 292.296 401.698 292.944 401.63 293.64V293.99L403.1 294.12ZM383.05 288.54C382.871 288.245 382.59 288.024 382.26 287.92C382.713 286.841 383.509 285.942 384.526 285.363C385.542 284.785 386.722 284.558 387.88 284.72H388.08C389.25 284.958 390.318 285.553 391.134 286.423C391.951 287.294 392.478 288.397 392.64 289.58C391.78 289.58 390.98 290.49 390.82 291.74L390.77 292.09L392.2 292.32C392.208 292.634 392.333 292.933 392.55 293.16L390.23 311H390.02C389.18 310.87 388.36 311.66 388.09 312.82L380.69 311.61C380.721 311.016 380.571 310.427 380.26 309.92C380.151 309.745 380.005 309.595 379.832 309.481C379.66 309.367 379.465 309.292 379.26 309.26H379.05L381.39 291.43C381.523 291.356 381.64 291.256 381.733 291.136C381.826 291.016 381.893 290.877 381.93 290.73L383.37 290.96V290.62C383.521 289.912 383.411 289.173 383.06 288.54H383.05ZM387.95 251.12C387.771 250.825 387.49 250.604 387.16 250.5C387.614 249.421 388.41 248.522 389.426 247.942C390.442 247.362 391.621 247.133 392.78 247.29H392.99C394.159 247.525 395.225 248.118 396.041 248.987C396.856 249.857 397.38 250.959 397.54 252.14C396.68 252.14 395.89 253.05 395.73 254.31V254.66L397.16 254.89C397.163 255.205 397.289 255.506 397.51 255.73L395.17 273.56H394.96C394.767 273.532 394.57 273.547 394.383 273.604C394.196 273.661 394.025 273.758 393.88 273.89C393.434 274.292 393.132 274.83 393.02 275.42L385.63 274.21C385.673 273.602 385.523 272.997 385.2 272.48C385.099 272.308 384.961 272.16 384.797 272.046C384.633 271.933 384.447 271.855 384.25 271.82H384.04L386.34 254C386.475 253.929 386.593 253.831 386.687 253.712C386.782 253.594 386.851 253.457 386.89 253.31L388.32 253.55V253.21C388.471 252.498 388.357 251.755 388 251.12H387.95ZM392.89 213.52C392.702 213.228 392.42 213.01 392.09 212.9C392.544 211.821 393.34 210.922 394.356 210.342C395.372 209.762 396.551 209.533 397.71 209.69H397.91C399.079 209.926 400.146 210.519 400.964 211.388C401.781 212.257 402.307 213.358 402.47 214.54C401.6 214.54 400.81 215.43 400.65 216.71V217.06L402.08 217.29C402.081 217.445 402.112 217.597 402.172 217.74C402.232 217.882 402.32 218.012 402.43 218.12L400.06 236H399.84C399.647 235.973 399.45 235.989 399.264 236.046C399.077 236.103 398.905 236.2 398.76 236.33C398.282 236.78 397.971 237.38 397.88 238.03L390.51 236.84C390.63 235.54 390.04 234.4 389.14 234.26H388.93L391.27 216.42C391.403 216.347 391.52 216.249 391.615 216.13C391.709 216.012 391.779 215.876 391.82 215.73L393.25 215.97V215.62C393.394 214.901 393.27 214.154 392.9 213.52H392.89ZM397.79 176.11C397.609 175.812 397.324 175.591 396.99 175.49C397.444 174.411 398.24 173.512 399.256 172.932C400.272 172.352 401.451 172.123 402.61 172.28H402.81C403.981 172.514 405.051 173.106 405.869 173.975C406.688 174.845 407.216 175.947 407.38 177.13C407.044 177.134 406.719 177.254 406.46 177.47C405.948 177.951 405.625 178.601 405.55 179.3V179.65L406.98 179.88C406.988 180.194 407.113 180.493 407.33 180.72L405 198.59H404.79C404.597 198.562 404.4 198.578 404.214 198.635C404.027 198.692 403.855 198.789 403.71 198.92C403.267 199.319 402.969 199.854 402.86 200.44L395.47 199.23C395.47 198.03 394.94 196.99 394.09 196.85H393.88L396.21 179.01C396.342 178.938 396.459 178.841 396.553 178.725C396.647 178.608 396.718 178.474 396.76 178.33L398.19 178.55L398.24 178.22C398.36 177.486 398.203 176.734 397.8 176.11H397.79ZM401.79 138.06H401.63C402.1 136.894 402.945 135.919 404.032 135.289C405.119 134.658 406.385 134.409 407.63 134.58H407.83C409.083 134.837 410.223 135.481 411.09 136.421C411.957 137.362 412.506 138.55 412.66 139.82H412.51C411.59 139.66 410.7 140.63 410.51 141.97V142.32L411.94 142.55C411.943 142.862 412.068 143.16 412.29 143.38L409.95 161.22H409.74C408.9 161.08 408.08 161.88 407.81 163.03L400.42 161.83C400.454 161.236 400.304 160.646 399.99 160.14C399.886 159.97 399.748 159.824 399.584 159.71C399.421 159.597 399.236 159.518 399.04 159.48H398.82L401.16 141.64C401.295 141.569 401.413 141.471 401.507 141.353C401.602 141.234 401.671 141.097 401.71 140.95L403.14 141.19L403.19 140.84C403.27 139.4 402.68 138.22 401.75 138.06H401.79ZM400.52 101.06C401.19 95.9599 405.45 92.4199 410.03 93.1599C411.152 93.3552 412.221 93.7825 413.168 94.4145C414.115 95.0464 414.919 95.8691 415.53 96.8299C416.888 98.8685 417.45 101.334 417.11 103.76L414.21 125.84L397.62 123.14L400.52 101.06ZM387.88 139.39C388.145 139.238 388.341 138.991 388.43 138.7L389.86 138.94V138.59C390.04 137.26 389.44 136.04 388.51 135.89C388.98 134.724 389.825 133.749 390.912 133.119C391.999 132.488 393.265 132.239 394.51 132.41H394.71C395.964 132.663 397.106 133.304 397.975 134.243C398.844 135.182 399.395 136.37 399.55 137.64H399.44C398.52 137.49 397.62 138.46 397.44 139.8V140.14L398.87 140.38C398.872 140.535 398.905 140.689 398.967 140.831C399.029 140.974 399.118 141.102 399.23 141.21L396.88 159.05H396.68C396.485 159.024 396.286 159.04 396.098 159.099C395.909 159.158 395.736 159.257 395.59 159.39C395.159 159.78 394.864 160.299 394.75 160.87L387.2 159.65C387.235 159.053 387.085 158.459 386.77 157.95C386.666 157.78 386.528 157.634 386.364 157.52C386.201 157.407 386.016 157.328 385.82 157.29H385.61L387.88 139.39ZM382.98 176.77C383.112 176.697 383.228 176.598 383.32 176.48C383.413 176.361 383.481 176.225 383.52 176.08L384.96 176.31V175.97C385.071 175.277 384.929 174.567 384.56 173.97C384.394 173.709 384.154 173.503 383.87 173.38C384.321 172.297 385.119 171.395 386.137 170.814C387.156 170.233 388.339 170.007 389.5 170.17H389.7C390.871 170.406 391.939 171.001 392.756 171.872C393.573 172.743 394.099 173.847 394.26 175.03C393.41 175.03 392.64 175.96 392.47 177.2V177.55L393.91 177.78C393.909 177.934 393.938 178.087 393.997 178.229C394.055 178.372 394.141 178.501 394.25 178.61L391.92 196.45H391.71C390.84 196.3 390.03 197.1 389.78 198.3L382.23 197.07C382.23 195.86 381.7 194.82 380.85 194.68H380.64L382.98 176.77ZM378 214.2C378.134 214.128 378.251 214.029 378.345 213.911C378.44 213.792 378.51 213.656 378.55 213.51L379.98 213.74V213.4C380.098 212.903 380.056 212.381 379.861 211.909C379.665 211.436 379.325 211.038 378.89 210.77C379.341 209.689 380.137 208.788 381.153 208.207C382.17 207.627 383.35 207.399 384.51 207.56H384.71C385.882 207.796 386.952 208.39 387.77 209.261C388.589 210.132 389.117 211.236 389.28 212.42C388.43 212.42 387.66 213.36 387.49 214.59V214.94L388.92 215.18C388.93 215.49 389.055 215.786 389.27 216.01L387 233.88H386.79C385.9 233.74 385.04 234.64 384.79 235.88L377.27 234.66C377.4 233.36 376.8 232.23 375.91 232.08H375.69L378 214.2ZM373.08 251.8C373.344 251.65 373.538 251.402 373.62 251.11L375.05 251.34V251C375.167 250.503 375.124 249.981 374.929 249.509C374.733 249.038 374.394 248.639 373.96 248.37C374.411 247.289 375.207 246.388 376.223 245.807C377.24 245.227 378.42 244.999 379.58 245.16H379.79C380.96 245.397 382.026 245.992 382.842 246.863C383.657 247.734 384.181 248.837 384.34 250.02C383.5 250.02 382.73 250.95 382.57 252.19L382.51 252.53L383.95 252.77C383.956 253.083 384.086 253.381 384.31 253.6L382 271.47H381.79C380.94 271.33 380.12 272.15 379.86 273.33L372.31 272.1C372.37 270.87 371.8 269.84 370.94 269.7H370.73L373.08 251.8ZM368.17 289.22C368.303 289.149 368.42 289.05 368.513 288.932C368.606 288.813 368.673 288.676 368.71 288.53L370.15 288.76L370.2 288.42C370.314 287.923 370.27 287.402 370.074 286.931C369.879 286.46 369.542 286.061 369.11 285.79C369.56 284.711 370.355 283.811 371.369 283.231C372.384 282.65 373.562 282.421 374.72 282.58H374.93C376.102 282.815 377.17 283.409 377.988 284.28C378.805 285.152 379.33 286.256 379.49 287.44C378.65 287.44 377.87 288.38 377.71 289.62V289.96L379.14 290.19C379.14 290.345 379.17 290.498 379.231 290.641C379.291 290.783 379.379 290.912 379.49 291.02L377.15 308.87H376.94C376.1 308.73 375.28 309.52 375.02 310.68L367.47 309.45C367.496 308.852 367.343 308.26 367.03 307.75C366.927 307.58 366.789 307.433 366.625 307.32C366.461 307.206 366.276 307.128 366.08 307.09H365.87L368.17 289.22ZM372 346.22C371.15 346.08 370.33 346.89 370.07 348.07L362.52 346.84C362.563 346.235 362.413 345.633 362.09 345.12C361.982 344.943 361.836 344.791 361.664 344.675C361.491 344.56 361.295 344.483 361.09 344.45H360.89L363.22 326.61C363.353 326.54 363.471 326.443 363.565 326.326C363.66 326.21 363.729 326.075 363.77 325.93L365.2 326.16L365.25 325.81C365.361 325.312 365.315 324.791 365.118 324.32C364.921 323.849 364.583 323.451 364.15 323.18C364.606 322.101 365.404 321.201 366.421 320.621C367.439 320.041 368.62 319.812 369.78 319.97H369.98C371.152 320.207 372.221 320.803 373.039 321.676C373.856 322.549 374.381 323.655 374.54 324.84C374.22 324.85 373.912 324.97 373.67 325.18C373.146 325.653 372.821 326.307 372.76 327.01L372.71 327.35L374.15 327.58C374.156 327.891 374.281 328.189 374.5 328.41L372.16 346.26L372 346.22ZM385.08 348.35C384.24 348.21 383.42 349.03 383.15 350.2L375.76 349C375.81 347.79 375.23 346.75 374.38 346.61H374.17L376.51 328.77C376.643 328.701 376.759 328.604 376.852 328.487C376.945 328.37 377.013 328.235 377.05 328.09L378.49 328.32V327.97C378.618 327.457 378.571 326.917 378.355 326.434C378.139 325.952 377.768 325.556 377.3 325.31C377.755 324.233 378.552 323.336 379.568 322.758C380.584 322.18 381.762 321.952 382.92 322.11H383.12C384.289 322.346 385.356 322.939 386.173 323.808C386.99 324.677 387.517 325.778 387.68 326.96C386.82 326.96 386.03 327.88 385.86 329.14V329.48L387.3 329.71C387.301 329.865 387.332 330.018 387.392 330.16C387.452 330.302 387.54 330.432 387.65 330.54L385.31 348.39L385.08 348.35ZM395.98 350.13C395.13 349.99 394.31 350.8 394.05 351.98L388.84 351.13C388.928 350.634 388.839 350.123 388.588 349.687C388.338 349.25 387.942 348.915 387.47 348.74H387.25L389.59 330.9C389.725 330.827 389.843 330.727 389.938 330.607C390.032 330.487 390.101 330.348 390.14 330.2L391.58 330.44V330.09C391.75 328.79 391.18 327.6 390.29 327.41C391.19 325.14 393.02 323.75 394.9 324.05H395.06C396.93 324.35 398.33 326.27 398.61 328.73C397.74 328.73 396.92 329.63 396.75 330.9L396.7 331.24L398.14 331.48C398.143 331.792 398.268 332.09 398.49 332.31L396.15 350.15L395.98 350.13ZM407.34 333C407.342 333.31 407.464 333.608 407.68 333.83L405.35 351.68H405.13C404.936 351.654 404.739 351.671 404.552 351.729C404.366 351.788 404.194 351.887 404.05 352.02C403.61 352.417 403.311 352.947 403.2 353.53L399.76 352.97C399.82 351.76 399.24 350.72 398.39 350.58H398.18L400.52 332.74C400.655 332.669 400.773 332.571 400.867 332.453C400.962 332.334 401.031 332.197 401.07 332.05L402.5 332.28V331.94C402.68 330.63 402.1 329.45 401.21 329.25C402 326.97 403.51 325.53 405.01 325.77H405.14C406.63 326.02 407.71 327.88 407.88 330.32C406.97 330.18 406.08 331.14 405.88 332.48L405.83 332.82L407.34 333ZM412.23 295.62C412.231 295.775 412.263 295.929 412.325 296.072C412.387 296.214 412.477 296.343 412.59 296.45L410.25 314.3H410.03C409.19 314.16 408.38 314.96 408.11 316.12L404.67 315.56C404.71 314.965 404.559 314.373 404.24 313.87C404.134 313.691 403.989 313.538 403.816 313.422C403.643 313.306 403.446 313.23 403.24 313.2H403.03L405.36 295.36C405.495 295.289 405.613 295.191 405.707 295.073C405.802 294.954 405.871 294.817 405.91 294.67L407.35 294.9V294.56C407.52 293.23 406.97 292.07 406.07 291.87C406.86 289.62 408.38 288.15 409.86 288.39H409.99C411.48 288.63 412.56 290.5 412.73 292.94C412.539 292.911 412.343 292.926 412.158 292.983C411.972 293.04 411.802 293.138 411.66 293.27C411.149 293.747 410.829 294.394 410.76 295.09L410.71 295.44L412.23 295.62ZM417.14 258.19C417.14 258.346 417.17 258.501 417.23 258.645C417.29 258.79 417.379 258.92 417.49 259.03L415.15 276.87H414.94C414.08 276.73 413.26 277.55 413 278.73L409.57 278.17C409.617 277.56 409.47 276.951 409.15 276.43C409.04 276.255 408.893 276.106 408.721 275.993C408.549 275.879 408.354 275.803 408.15 275.77H407.95L410.28 257.92C410.413 257.85 410.531 257.753 410.625 257.636C410.72 257.519 410.789 257.385 410.83 257.24L412.26 257.47L412.31 257.12C412.415 256.427 412.273 255.719 411.91 255.12C411.708 254.797 411.39 254.564 411.02 254.47C411.81 252.19 413.31 250.74 414.82 250.98H414.94C416.41 251.22 417.5 253.11 417.68 255.53C417.49 255.503 417.296 255.518 417.113 255.575C416.93 255.632 416.761 255.729 416.62 255.86C416.097 256.329 415.772 256.98 415.71 257.68V258.03L417.14 258.19ZM422.07 220.6C422.068 220.914 422.191 221.216 422.41 221.44L420.08 239.28L419.86 239.23C418.97 239.1 418.12 240 417.86 241.23L414.45 240.68C414.531 240.015 414.386 239.343 414.04 238.77C413.932 238.594 413.786 238.443 413.613 238.329C413.441 238.215 413.245 238.14 413.04 238.11H412.83L415.17 220.27C415.303 220.199 415.42 220.1 415.513 219.982C415.606 219.863 415.673 219.726 415.71 219.58L417.14 219.82V219.47C417.248 218.778 417.11 218.071 416.75 217.47C416.551 217.145 416.231 216.911 415.86 216.82C416.64 214.53 418.15 213.08 419.65 213.32H419.78C421.25 213.56 422.34 215.45 422.51 217.87C422.32 217.845 422.127 217.862 421.944 217.919C421.761 217.976 421.593 218.072 421.45 218.2C420.938 218.676 420.618 219.324 420.55 220.02V220.36L422.07 220.6ZM426.97 183.19C426.971 183.345 427.002 183.497 427.062 183.64C427.122 183.782 427.21 183.912 427.32 184.02L425 201.85H424.79C423.94 201.72 423.12 202.53 422.86 203.71L419.43 203.15C419.475 202.545 419.324 201.942 419 201.43C418.891 201.253 418.746 201.102 418.573 200.986C418.401 200.871 418.205 200.793 418 200.76H417.79L420.14 182.92C420.404 182.77 420.598 182.522 420.68 182.23L422.12 182.47V182.12C422.225 181.427 422.083 180.719 421.72 180.12C421.521 179.795 421.201 179.561 420.83 179.47C421.61 177.19 423.12 175.74 424.62 175.98H424.75C426.23 176.22 427.31 178.12 427.49 180.53C426.57 180.39 425.7 181.34 425.49 182.69V183.03L426.97 183.19ZM432.47 143.07C431.53 142.92 430.66 143.87 430.47 145.23L430.41 145.58L431.85 145.81C431.855 146.124 431.98 146.425 432.2 146.65L429.86 164.48H429.65C429.457 164.451 429.26 164.465 429.073 164.523C428.886 164.58 428.714 164.678 428.57 164.81C428.134 165.198 427.835 165.717 427.72 166.29L424.28 165.73C424.28 164.54 423.75 163.52 422.91 163.38H422.7L425.03 145.54C425.164 145.468 425.281 145.369 425.375 145.251C425.47 145.132 425.54 144.996 425.58 144.85L427 145L427.05 144.66C427.22 143.29 426.63 142.1 425.7 141.95H425.45C426.28 139.5 427.93 137.9 429.6 138.17H429.73C431.39 138.44 432.58 140.5 432.73 143.11L432.47 143.07Z" fill="#143F6B"/>
<path opacity="0.88" d="M400.57 369.5L400.3 371.66L397.79 371.25L398.07 369.09C398.72 364.14 395.8 359.56 391.58 358.87C387.36 358.18 383.37 361.65 382.72 366.59L382.44 368.75L379.75 368.31L380.03 366.16C380.339 363.774 379.717 361.36 378.292 359.421C376.867 357.483 374.75 356.168 372.38 355.75C371.226 355.562 370.046 355.61 368.91 355.891C367.775 356.171 366.708 356.678 365.774 357.382C364.84 358.085 364.057 358.97 363.474 359.984C362.891 360.998 362.519 362.119 362.38 363.28L362.1 365.44L359.46 365.01L359.74 362.85C360.035 360.526 359.446 358.175 358.091 356.264C356.735 354.353 354.711 353.02 352.42 352.53L346.04 401.53H354.1L358.25 372.14C358.319 372.175 358.393 372.196 358.47 372.2L361.14 372.65H361.37L357.87 401.52H375L378.67 375.46L378.9 375.53L381.56 375.96H381.8L378.7 401.51H393.13L396.4 378.34C396.473 378.375 396.55 378.399 396.63 378.41L399.29 378.84H399.52L396.77 401.5H400.39C400.45 401.02 404.39 371.18 405.59 361.93C403 363 401 366 400.57 369.5Z" fill="#143F6B"/>
<path opacity="0.88" d="M346.92 53.75C346.703 54.1546 346.561 54.5949 346.5 55.05C346.345 55.9479 346.54 56.8712 347.047 57.6288C347.553 58.3864 348.331 58.9203 349.22 59.12L350.65 59.35L349.46 68.35L348.46 68.18C347.4 68.01 346.38 69.18 346.17 70.68V71.03L347.48 71.24C347.468 71.6838 347.609 72.1182 347.88 72.47L342.74 111.67C341.79 111.55 340.87 112.49 340.58 113.83L326.81 111.59C326.559 111.561 326.305 111.583 326.062 111.655C325.82 111.728 325.595 111.848 325.4 112.01C325.206 112.172 325.046 112.371 324.931 112.596C324.816 112.822 324.747 113.068 324.73 113.32C324.665 113.849 324.789 114.384 325.08 114.83C325.213 115.04 325.389 115.219 325.596 115.357C325.802 115.495 326.035 115.588 326.28 115.63L327.28 115.79L326.38 122.65C326.908 123.648 327.209 124.752 327.26 125.88H327.13C326.21 125.73 325.32 126.7 325.13 128.04V128.38L326.56 128.61C326.57 128.923 326.695 129.222 326.91 129.45L324.58 147.29H324.36C324.167 147.261 323.97 147.276 323.783 147.333C323.596 147.39 323.424 147.488 323.28 147.62C322.845 148.012 322.55 148.535 322.44 149.11L321.97 149.04C321.719 149.011 321.465 149.033 321.223 149.104C320.98 149.176 320.755 149.295 320.56 149.456C320.365 149.616 320.204 149.815 320.087 150.039C319.97 150.263 319.9 150.508 319.88 150.76C319.81 151.289 319.934 151.826 320.23 152.27C320.364 152.48 320.54 152.66 320.746 152.799C320.953 152.939 321.185 153.034 321.43 153.08L322.1 153.19L321.19 160.19L321.25 160.31C321.734 161.24 322.013 162.263 322.07 163.31C321.743 163.314 321.427 163.435 321.18 163.65C320.666 164.13 320.342 164.78 320.27 165.48V165.82L321.7 166.05C321.708 166.364 321.833 166.663 322.05 166.89L319.72 184.73H319.5C319.306 184.704 319.109 184.721 318.922 184.779C318.736 184.838 318.564 184.937 318.42 185.07C317.977 185.465 317.679 185.996 317.57 186.58L317.11 186.5C316.859 186.472 316.604 186.496 316.362 186.568C316.119 186.641 315.894 186.761 315.699 186.923C315.504 187.084 315.344 187.283 315.227 187.508C315.111 187.732 315.04 187.978 315.02 188.23C314.925 188.742 315.034 189.272 315.324 189.705C315.613 190.138 316.061 190.441 316.57 190.55L317.24 190.66L316.32 197.66L316.39 197.77C316.874 198.7 317.153 199.723 317.21 200.77C316.88 200.774 316.561 200.895 316.31 201.11C315.797 201.59 315.477 202.241 315.41 202.94V203.28L316.84 203.51C316.843 203.825 316.969 204.126 317.19 204.35L314.85 222.19H314.64C314.448 222.16 314.251 222.174 314.064 222.229C313.878 222.284 313.705 222.38 313.56 222.51C313.073 222.958 312.758 223.563 312.67 224.22L312 224C311.76 223.964 311.516 223.98 311.283 224.047C311.049 224.114 310.834 224.231 310.65 224.39C310.243 224.724 309.984 225.206 309.93 225.73C309.853 226.261 309.974 226.802 310.27 227.25C310.406 227.459 310.584 227.638 310.792 227.776C311 227.913 311.234 228.007 311.48 228.05L312.14 228.16L311.22 235.16L311.29 235.27C311.778 236.199 312.058 237.222 312.11 238.27C311.26 238.27 310.48 239.19 310.31 240.44V240.78L311.74 241.02C311.742 241.173 311.773 241.324 311.833 241.465C311.893 241.606 311.981 241.733 312.09 241.84L309.75 259.69H309.54C308.69 259.55 307.87 260.37 307.6 261.55L307.14 261.48C306.89 261.451 306.636 261.473 306.394 261.545C306.153 261.616 305.928 261.736 305.734 261.896C305.539 262.057 305.379 262.255 305.264 262.479C305.148 262.703 305.079 262.949 305.06 263.2C304.965 263.712 305.074 264.242 305.364 264.675C305.653 265.108 306.101 265.411 306.61 265.52L307.28 265.63L306.36 272.63L306.42 272.74C306.915 273.666 307.195 274.691 307.24 275.74C306.4 275.74 305.61 276.66 305.45 277.91V278.25L306.89 278.49C306.893 278.802 307.018 279.101 307.24 279.32L304.9 297.16H304.69C304.495 297.132 304.297 297.147 304.109 297.204C303.92 297.261 303.747 297.359 303.6 297.49C303.167 297.879 302.872 298.399 302.76 298.97L302.29 298.89C302.039 298.864 301.786 298.888 301.545 298.961C301.304 299.035 301.08 299.156 300.886 299.317C300.692 299.478 300.532 299.676 300.416 299.9C300.3 300.124 300.23 300.369 300.21 300.62C300.115 301.132 300.224 301.662 300.514 302.095C300.803 302.528 301.251 302.831 301.76 302.94L302.43 303.06L301.52 310.06L301.57 310.16C302.062 311.088 302.345 312.112 302.4 313.16C301.54 313.16 300.76 314.08 300.6 315.33V315.67L302.03 315.9C302.033 316.213 302.154 316.513 302.37 316.74L300.04 334.58H299.83C298.98 334.45 298.15 335.26 297.89 336.43L297.43 336.36C297.18 336.331 296.926 336.353 296.684 336.425C296.443 336.496 296.218 336.616 296.023 336.776C295.829 336.937 295.669 337.135 295.554 337.359C295.438 337.583 295.369 337.829 295.35 338.08C295.277 338.614 295.397 339.157 295.69 339.61C295.827 339.815 296.004 339.991 296.21 340.126C296.417 340.262 296.648 340.355 296.89 340.4L353.26 349.58L353.78 345.58L349.52 344.89C349.57 343.68 348.99 342.63 348.15 342.5H347.94L350.27 324.66C350.405 324.589 350.523 324.491 350.617 324.373C350.712 324.254 350.781 324.117 350.82 323.97L352.26 324.2V323.86C352.422 323.311 352.384 322.723 352.154 322.199C351.923 321.676 351.514 321.251 351 321C351.451 319.919 352.247 319.018 353.263 318.438C354.28 317.857 355.46 317.629 356.62 317.79H356.82C356.943 317.821 357.063 317.861 357.18 317.91L358.48 307.91L354.26 307.22C354.292 306.629 354.142 306.043 353.83 305.54C353.721 305.363 353.576 305.212 353.403 305.096C353.231 304.981 353.035 304.904 352.83 304.87H352.62L355 287.08C355.134 287.008 355.251 286.909 355.345 286.791C355.44 286.672 355.51 286.536 355.55 286.39L356.98 286.62L357.03 286.27C357.148 285.768 357.101 285.242 356.898 284.769C356.695 284.296 356.345 283.9 355.9 283.64C356.351 282.559 357.147 281.658 358.163 281.078C359.18 280.497 360.36 280.269 361.52 280.43H361.72C361.84 280.43 361.93 280.52 362.05 280.55L363.34 270.55L359.16 269.87C359.201 269.261 359.054 268.654 358.74 268.13C358.629 267.956 358.482 267.808 358.31 267.694C358.138 267.581 357.944 267.504 357.74 267.47H357.53L360 249.65C360.133 249.581 360.249 249.484 360.342 249.367C360.435 249.25 360.503 249.115 360.54 248.97L361.98 249.21L362.03 248.86C362.132 248.166 361.987 247.458 361.62 246.86C361.451 246.581 361.194 246.367 360.89 246.25C361.343 245.171 362.139 244.272 363.156 243.693C364.172 243.115 365.352 242.888 366.51 243.05H366.71C366.82 243.05 366.9 243.13 367 243.15L368.3 233.15L364.16 232.48C364.24 231.815 364.096 231.143 363.75 230.57C363.644 230.391 363.499 230.239 363.326 230.125C363.153 230.011 362.956 229.937 362.75 229.91H362.53L364.87 212.07C365.005 211.998 365.124 211.9 365.22 211.782C365.316 211.663 365.388 211.527 365.43 211.38L366.86 211.61V211.27C366.982 210.766 366.937 210.236 366.732 209.759C366.526 209.283 366.171 208.887 365.72 208.63C366.172 207.55 366.968 206.65 367.985 206.07C369.001 205.489 370.181 205.261 371.34 205.42H371.55C371.63 205.42 371.7 205.49 371.79 205.51L373.09 195.56L368.98 194.89C369.03 193.66 368.46 192.64 367.6 192.5H367.39L369.73 174.65C369.865 174.58 369.984 174.483 370.079 174.364C370.174 174.245 370.242 174.107 370.28 173.96L371.71 174.2V173.85C371.828 173.347 371.781 172.82 371.576 172.346C371.371 171.872 371.018 171.477 370.57 171.22C371.03 170.121 371.843 169.207 372.881 168.624C373.919 168.041 375.123 167.821 376.3 168H376.49C376.57 168 376.63 168.06 376.71 168.07L378.01 158.13L373.93 157.46C373.93 156.27 373.4 155.24 372.56 155.11H372.34L374.68 137.27C374.813 137.199 374.93 137.1 375.023 136.982C375.116 136.863 375.183 136.726 375.22 136.58L376.66 136.82L376.71 136.47C376.88 135.14 376.27 133.93 375.35 133.78H375.26C375.73 132.614 376.575 131.639 377.662 131.009C378.749 130.378 380.015 130.129 381.26 130.3H381.46C381.518 130.329 381.578 130.353 381.64 130.37L390.64 60.86L346.92 53.75ZM349.15 129.5H349.03C349.5 128.334 350.345 127.359 351.432 126.729C352.519 126.098 353.785 125.849 355.03 126.02H355.23C356.483 126.276 357.623 126.918 358.492 127.856C359.36 128.795 359.912 129.981 360.07 131.25H359.95C359.01 131.1 358.14 132.05 357.95 133.41V133.76L359.37 133.99C359.376 134.301 359.501 134.599 359.72 134.82L357.39 152.66H357.18C356.986 152.633 356.789 152.65 356.602 152.708C356.415 152.767 356.244 152.867 356.1 153C355.662 153.387 355.363 153.907 355.25 154.48L347.78 153.27C347.78 152.07 347.24 151.05 346.4 150.91H346.19L348.47 133C348.606 132.927 348.726 132.828 348.822 132.707C348.918 132.587 348.989 132.448 349.03 132.3L350.46 132.54V132.2C350.68 130.85 350.07 129.65 349.15 129.5ZM354.43 171.37C354.435 171.684 354.561 171.985 354.78 172.21L352.44 190H352.22C351.38 189.86 350.55 190.68 350.29 191.84L342.83 190.63C342.873 190.027 342.726 189.426 342.41 188.91C342.302 188.734 342.156 188.583 341.983 188.469C341.811 188.355 341.615 188.28 341.41 188.25H341.2L343.54 170.41C343.672 170.337 343.788 170.239 343.88 170.12C343.973 170.001 344.041 169.865 344.08 169.72L345.52 169.95L345.57 169.61C345.691 169.101 345.641 168.567 345.43 168.089C345.219 167.61 344.857 167.214 344.4 166.96C344.857 165.882 345.655 164.983 346.673 164.403C347.69 163.823 348.87 163.594 350.03 163.75H350.22C351.393 163.982 352.463 164.576 353.281 165.447C354.099 166.319 354.623 167.425 354.78 168.61C353.93 168.61 353.16 169.52 353 170.78V171.12L354.43 171.37ZM349.53 208.77C349.528 209.084 349.651 209.386 349.87 209.61L347.53 227.46H347.32C346.43 227.32 345.57 228.22 345.32 229.46L337.87 228.25C337.99 226.96 337.4 225.82 336.51 225.68H336.29L338.63 207.84C338.766 207.771 338.885 207.673 338.98 207.554C339.075 207.435 339.143 207.298 339.18 207.15L340.62 207.38V207.05C340.728 206.358 340.59 205.651 340.23 205.05C340.05 204.765 339.778 204.55 339.46 204.44C339.911 203.359 340.707 202.458 341.723 201.878C342.74 201.297 343.92 201.069 345.08 201.23H345.28C346.452 201.465 347.52 202.059 348.338 202.93C349.155 203.802 349.68 204.906 349.84 206.09C348.99 206.09 348.23 207 348.05 208.26V208.6L349.53 208.77ZM344.6 246.38C344.599 246.535 344.63 246.688 344.69 246.831C344.75 246.974 344.839 247.103 344.95 247.21L342.61 265.06H342.39C341.54 264.92 340.72 265.73 340.46 266.91L333 265.66C333.044 265.052 332.894 264.446 332.57 263.93C332.462 263.752 332.317 263.6 332.144 263.485C331.971 263.369 331.776 263.292 331.57 263.26H331.35L333.69 245.42C333.825 245.349 333.943 245.251 334.037 245.133C334.132 245.014 334.201 244.877 334.24 244.73L335.67 244.96V244.62C335.795 244.112 335.749 243.578 335.539 243.099C335.329 242.62 334.968 242.223 334.51 241.97C334.964 240.892 335.761 239.994 336.777 239.416C337.793 238.837 338.972 238.61 340.13 238.77H340.33C341.503 239.002 342.573 239.596 343.391 240.467C344.209 241.339 344.733 242.445 344.89 243.63C344.04 243.63 343.27 244.54 343.1 245.8V246.14L344.6 246.38ZM339.69 283.8C339.694 284.112 339.819 284.41 340.04 284.63L337.7 302.47H337.49C336.65 302.33 335.83 303.13 335.56 304.29L328.1 303C328.1 301.8 327.55 300.78 326.71 300.65H326.5L328.84 282.81C328.975 282.739 329.093 282.641 329.187 282.523C329.282 282.404 329.351 282.267 329.39 282.12L330.82 282.35V282.02C330.925 281.327 330.783 280.619 330.42 280.02C330.242 279.733 329.97 279.518 329.65 279.41C330.1 278.329 330.896 277.428 331.913 276.849C332.93 276.27 334.111 276.045 335.27 276.21H335.48C336.652 276.448 337.72 277.045 338.537 277.918C339.354 278.79 339.879 279.895 340.04 281.08C339.18 281.08 338.42 281.98 338.25 283.24V283.59L339.69 283.8ZM319.79 278.24C319.689 278.068 319.551 277.92 319.387 277.806C319.223 277.693 319.037 277.615 318.84 277.58H318.78C319.69 275.33 321.51 273.93 323.39 274.24H323.56C325.43 274.54 326.82 276.46 327.1 278.92C326.17 278.8 325.32 279.74 325.1 281.08V281.43L326.53 281.66C326.536 281.971 326.661 282.269 326.88 282.49L324.55 300.33H324.33C324.137 300.302 323.94 300.318 323.753 300.375C323.567 300.432 323.395 300.529 323.25 300.66C322.817 301.049 322.522 301.569 322.41 302.14L317.41 301.33C317.453 300.735 317.302 300.142 316.98 299.64C316.874 299.462 316.729 299.31 316.556 299.196C316.382 299.082 316.186 299.008 315.98 298.98H315.77L318.11 281.13C318.243 281.057 318.36 280.959 318.455 280.84C318.549 280.722 318.619 280.586 318.66 280.44L320.09 280.68V280.33C320.247 279.62 320.14 278.877 319.79 278.24ZM324.69 240.82C324.583 240.642 324.438 240.49 324.265 240.374C324.092 240.258 323.896 240.182 323.69 240.15C324.59 237.89 326.42 236.5 328.29 236.8H328.46C330.32 237.1 331.72 239.02 332 241.48C331.09 241.36 330.23 242.31 330 243.64V243.98L331.44 244.22C331.449 244.529 331.57 244.824 331.78 245.05L329.45 262.89H329.24C329.046 262.864 328.848 262.88 328.66 262.937C328.472 262.994 328.298 263.091 328.15 263.22C327.709 263.623 327.413 264.161 327.31 264.75L322.31 263.94C322.31 262.73 321.78 261.69 320.93 261.55H320.71L323.06 243.71C323.327 243.561 323.524 243.313 323.61 243.02L325.04 243.25L325.09 242.91C325.217 242.188 325.074 241.444 324.69 240.82ZM328.69 202.56C329.59 200.3 331.42 198.91 333.29 199.21H333.45C335.32 199.52 336.71 201.43 337 203.89C336.1 203.77 335.22 204.73 335.05 206.05L335 206.39L336.44 206.63C336.441 206.785 336.472 206.938 336.532 207.08C336.592 207.223 336.68 207.352 336.79 207.46L334.45 225.3H334.23C334.037 225.27 333.84 225.284 333.653 225.342C333.466 225.399 333.294 225.497 333.15 225.63C332.67 226.078 332.359 226.679 332.27 227.33L327.27 226.52C327.351 225.855 327.206 225.183 326.86 224.61C326.753 224.433 326.607 224.282 326.434 224.168C326.261 224.053 326.065 223.979 325.86 223.95H325.65L328 206.05C328.136 205.981 328.255 205.883 328.35 205.764C328.445 205.645 328.513 205.508 328.55 205.36L329.99 205.6V205.26C330.2 203.92 329.58 202.7 328.67 202.56H328.69ZM334.54 165.8C334.437 165.629 334.299 165.483 334.135 165.369C333.972 165.255 333.786 165.177 333.59 165.14H333.54C334.45 162.88 336.27 161.49 338.14 161.79H338.3C340.18 162.1 341.57 164.01 341.85 166.47C341.67 166.456 341.489 166.478 341.317 166.534C341.145 166.591 340.987 166.681 340.85 166.8C340.329 167.275 340.004 167.928 339.94 168.63V168.97L341.37 169.2C341.371 169.515 341.497 169.817 341.72 170.04L339.38 187.88H339.17C338.32 187.75 337.49 188.56 337.24 189.73L332.24 188.92C332.29 187.71 331.71 186.67 330.86 186.54H330.65L332.99 168.7C333.122 168.627 333.238 168.529 333.33 168.41C333.423 168.291 333.491 168.155 333.53 168.01L334.97 168.25V167.9C335.084 167.168 334.924 166.42 334.52 165.8H334.54ZM338.54 127.8L338.18 127.74C339.12 125.31 341.09 123.74 343.18 124.1H343.34C345.34 124.43 346.88 126.54 347.16 129.16H346.88C345.96 129.01 345.07 129.98 344.88 131.32L344.82 131.66L346.26 131.89C346.263 132.205 346.389 132.506 346.61 132.73L344.27 150.57H344.05C343.858 150.547 343.663 150.565 343.478 150.623C343.294 150.682 343.124 150.78 342.98 150.91C342.543 151.296 342.248 151.817 342.14 152.39L337.14 151.58C337.14 150.38 336.6 149.36 335.76 149.23H335.55L337.89 131.39C338.022 131.317 338.138 131.219 338.231 131.1C338.323 130.981 338.391 130.845 338.43 130.7L339.87 130.94V130.59C340 129.1 339.4 127.91 338.47 127.76L338.54 127.8ZM328.81 129.8C328.944 129.731 329.062 129.635 329.157 129.518C329.252 129.401 329.321 129.265 329.36 129.12L330.79 129.35V129C330.895 128.307 330.753 127.599 330.39 127C330.279 126.826 330.132 126.678 329.96 126.564C329.788 126.451 329.594 126.374 329.39 126.34L328.83 126.25C329.66 123.8 331.32 122.25 332.99 122.47H333.12C334.79 122.75 335.96 124.8 336.12 127.47H336.05C335.14 127.32 334.25 128.28 334.05 129.62V129.96L335.48 130.2C335.483 130.512 335.608 130.811 335.83 131.03L333.49 148.87H333.28C332.43 148.74 331.62 149.53 331.35 150.69L328 150C328.037 149.407 327.89 148.817 327.58 148.31C327.47 148.136 327.323 147.986 327.151 147.873C326.979 147.759 326.784 147.683 326.58 147.65H326.37L328.81 129.8ZM323.91 167.19C324.045 167.117 324.163 167.017 324.258 166.897C324.352 166.777 324.421 166.638 324.46 166.49L325.89 166.73V166.39C326.07 165.05 325.47 163.84 324.55 163.69H324.31C325.11 161.43 326.63 159.96 328.1 160.2H328.23C329.74 160.44 330.81 162.32 330.97 164.78C330.14 164.78 329.39 165.72 329.23 166.94L329.18 167.29L330.62 167.52C330.623 167.832 330.748 168.131 330.97 168.35L328.63 186.19H328.42C327.56 186.06 326.74 186.85 326.48 188.05L323.12 187.5C323.165 186.895 323.014 186.292 322.69 185.78C322.59 185.606 322.453 185.456 322.289 185.34C322.125 185.224 321.938 185.146 321.74 185.11H321.53L323.91 167.19ZM319.01 204.6C319.274 204.45 319.468 204.202 319.55 203.91L320.99 204.14V203.8C321.17 202.43 320.58 201.25 319.65 201.1H319.41C320.2 198.82 321.69 197.37 323.2 197.61H323.33C324.81 197.85 325.89 199.76 326.07 202.19C325.24 202.19 324.49 203.13 324.33 204.35V204.7L325.77 204.93C325.769 205.084 325.798 205.237 325.857 205.379C325.915 205.522 326.001 205.651 326.11 205.76L323.78 223.6H323.56C323.369 223.571 323.173 223.586 322.988 223.643C322.802 223.7 322.632 223.798 322.49 223.93C321.996 224.37 321.677 224.974 321.59 225.63L318.25 225.09C318.38 223.8 317.78 222.66 316.89 222.52L316.68 222.47L319.01 204.6ZM314 242.17C314.137 242.106 314.258 242.011 314.354 241.893C314.449 241.776 314.516 241.638 314.55 241.49L315.99 241.72V241.37C316.16 240.04 315.56 238.83 314.65 238.67H314.41C315.19 236.38 316.7 234.94 318.2 235.19H318.33C319.84 235.43 320.91 237.31 321.07 239.76C320.25 239.76 319.49 240.71 319.33 241.93V242.27L320.77 242.51C320.773 242.822 320.898 243.12 321.12 243.34L318.77 261.18H318.56C317.72 261.04 316.89 261.86 316.63 263.03L313.27 262.49C313.33 261.28 312.75 260.23 311.9 260.09H311.68L314 242.17ZM309.11 279.6C309.372 279.448 309.565 279.201 309.65 278.91L311.09 279.15V278.8C311.26 277.44 310.66 276.25 309.72 276.1H309.49C310.27 273.82 311.78 272.37 313.28 272.62H313.42C314.92 272.87 315.99 274.74 316.15 277.2C315.33 277.2 314.57 278.14 314.41 279.36V279.71L315.84 279.94C315.848 280.251 315.973 280.548 316.19 280.77L313.85 298.62H313.64C312.8 298.48 311.99 299.28 311.71 300.43L308.34 299.88C308.34 298.69 307.81 297.67 306.97 297.53H306.75L309.11 279.6ZM308.75 335.94C307.89 335.8 307.08 336.6 306.82 337.78L303.46 337.24C303.503 336.636 303.353 336.033 303.03 335.52C302.927 335.349 302.789 335.201 302.625 335.086C302.462 334.97 302.276 334.89 302.08 334.85H301.87L304.2 317C304.335 316.929 304.453 316.831 304.547 316.713C304.642 316.594 304.711 316.457 304.75 316.31L306.18 316.55L306.23 316.2C306.335 315.507 306.193 314.799 305.83 314.2C305.721 314.025 305.575 313.875 305.402 313.761C305.23 313.647 305.035 313.572 304.83 313.54H304.6C305.38 311.29 306.91 309.82 308.39 310.06H308.51C310.02 310.31 311.09 312.18 311.26 314.63C310.95 314.655 310.656 314.777 310.42 314.98C309.9 315.45 309.578 316.101 309.52 316.8L309.47 317.15L310.91 317.38C310.907 317.534 310.935 317.688 310.994 317.831C311.052 317.973 311.139 318.103 311.25 318.21L309 336L308.75 335.94ZM319.43 337.68C318.58 337.54 317.76 338.35 317.5 339.53L312.5 338.71C312.542 338.107 312.395 337.506 312.08 336.99C311.97 336.815 311.824 336.666 311.652 336.552C311.479 336.438 311.284 336.362 311.08 336.33H310.86L313.2 318.48C313.334 318.411 313.452 318.315 313.547 318.198C313.642 318.081 313.711 317.945 313.75 317.8L315.18 318.02V317.69C315.285 316.997 315.143 316.289 314.78 315.69C314.672 315.513 314.526 315.361 314.354 315.246C314.181 315.13 313.985 315.053 313.78 315.02C314.68 312.75 316.5 311.36 318.38 311.67H318.54C320.41 311.98 321.8 313.89 322.09 316.35C321.18 316.23 320.31 317.19 320.09 318.51V318.86L321.52 319.09C321.528 319.401 321.653 319.698 321.87 319.92L319.53 337.76L319.43 337.68ZM332.59 339.82C332.396 339.792 332.198 339.807 332.011 339.866C331.824 339.925 331.653 340.026 331.51 340.16C331.061 340.55 330.76 341.083 330.66 341.67L323.19 340.46C323.238 339.853 323.091 339.247 322.77 338.73C322.661 338.554 322.515 338.404 322.343 338.29C322.17 338.176 321.975 338.101 321.77 338.07H321.56L323.9 320.22C324.032 320.148 324.149 320.052 324.243 319.935C324.337 319.818 324.408 319.684 324.45 319.54L325.88 319.77L325.93 319.42C326.035 318.727 325.893 318.02 325.53 317.42C325.349 317.136 325.078 316.921 324.76 316.81C325.214 315.73 326.012 314.829 327.03 314.249C328.048 313.668 329.229 313.44 330.39 313.6H330.59C331.762 313.83 332.832 314.422 333.65 315.292C334.468 316.162 334.993 317.266 335.15 318.45C334.3 318.45 333.53 319.38 333.36 320.62V320.96L334.79 321.2C334.798 321.511 334.923 321.808 335.14 322.03L332.8 339.88L332.59 339.82ZM347.84 323.3C347.843 323.613 347.964 323.913 348.18 324.14L345.85 342H345.64C345.445 341.974 345.246 341.99 345.058 342.049C344.869 342.108 344.696 342.207 344.55 342.34C344.107 342.739 343.809 343.274 343.7 343.86L336.35 342.66C336.393 342.052 336.243 341.447 335.92 340.93C335.817 340.759 335.679 340.613 335.515 340.499C335.352 340.385 335.166 340.307 334.97 340.27H334.76L337.1 322.43C337.235 322.36 337.354 322.263 337.449 322.144C337.544 322.025 337.612 321.887 337.65 321.74L339.08 321.98V321.63C339.188 320.938 339.05 320.231 338.69 319.63C338.506 319.339 338.227 319.12 337.9 319.01C338.349 317.931 339.144 317.031 340.159 316.452C341.174 315.873 342.353 315.647 343.51 315.81H343.72C344.89 316.041 345.958 316.632 346.776 317.499C347.593 318.367 348.119 319.469 348.28 320.65C348.099 320.635 347.917 320.657 347.745 320.716C347.573 320.774 347.415 320.868 347.28 320.99C346.763 321.463 346.438 322.112 346.37 322.81V323.16L347.84 323.3ZM352.73 285.93C352.731 286.085 352.763 286.239 352.825 286.382C352.887 286.525 352.977 286.653 353.09 286.76L350.75 304.59H350.54C349.69 304.46 348.88 305.25 348.61 306.41L341.25 305.21C341.25 304.02 340.71 302.99 339.88 302.86H339.66L342 285C342.137 284.931 342.258 284.834 342.354 284.715C342.451 284.596 342.521 284.458 342.56 284.31L343.99 284.55V284.2C344.111 283.687 344.06 283.149 343.845 282.669C343.63 282.188 343.263 281.791 342.8 281.54C343.253 280.462 344.05 279.564 345.067 278.987C346.083 278.41 347.263 278.186 348.42 278.35H348.62C349.789 278.587 350.855 279.181 351.672 280.05C352.489 280.918 353.016 282.019 353.18 283.2C352.815 283.18 352.457 283.301 352.18 283.54C351.667 284.02 351.347 284.671 351.28 285.37V285.71L352.73 285.93ZM357.64 248.5C357.641 248.815 357.767 249.117 357.99 249.34L355.65 267.17H355.44C355.246 267.143 355.049 267.16 354.862 267.218C354.675 267.277 354.504 267.377 354.36 267.51C353.914 267.906 353.614 268.442 353.51 269.03L346.15 267.83C346.238 267.333 346.15 266.821 345.899 266.382C345.649 265.944 345.253 265.607 344.78 265.43H344.56L346.9 247.59C347.036 247.52 347.156 247.422 347.252 247.303C347.349 247.185 347.419 247.047 347.46 246.9L348.89 247.13V246.79C349.023 246.279 348.978 245.737 348.764 245.254C348.55 244.771 348.178 244.375 347.71 244.13C348.164 243.054 348.959 242.158 349.973 241.579C350.987 241.001 352.163 240.772 353.32 240.93H353.52C354.691 241.166 355.759 241.761 356.576 242.632C357.393 243.503 357.919 244.607 358.08 245.79C357.9 245.772 357.718 245.792 357.545 245.849C357.373 245.906 357.215 245.998 357.08 246.12C356.56 246.596 356.236 247.248 356.17 247.95V248.29L357.64 248.5ZM362.57 210.9C362.575 211.213 362.696 211.512 362.91 211.74L360.58 229.58H360.36C359.47 229.44 358.61 230.34 358.36 231.58L351.03 230.38C351.15 229.08 350.57 227.96 349.67 227.81H349.45L351.79 209.98C352.057 209.827 352.254 209.576 352.34 209.28L353.78 209.52V209.18C353.907 208.666 353.859 208.124 353.643 207.641C353.428 207.157 353.057 206.759 352.59 206.51C353.046 205.434 353.843 204.538 354.859 203.962C355.875 203.385 357.053 203.159 358.21 203.32H358.41C359.581 203.556 360.649 204.151 361.466 205.022C362.283 205.893 362.809 206.997 362.97 208.18C362.79 208.162 362.607 208.181 362.435 208.238C362.263 208.295 362.104 208.388 361.97 208.51C361.45 208.986 361.126 209.638 361.06 210.34V210.68L362.57 210.9ZM367.47 173.49C367.471 173.645 367.502 173.798 367.562 173.94C367.622 174.082 367.71 174.212 367.82 174.32L365.48 192.17H365.27C364.42 192.03 363.6 192.84 363.34 194.02L355.99 192.82C355.99 191.61 355.46 190.57 354.61 190.43H354.4L356.73 172.59C356.864 172.521 356.982 172.425 357.077 172.308C357.172 172.191 357.241 172.055 357.28 171.91L358.71 172.13V171.79C358.837 171.279 358.79 170.739 358.577 170.258C358.363 169.776 357.995 169.379 357.53 169.13C357.984 168.054 358.779 167.158 359.793 166.579C360.807 166.001 361.983 165.772 363.14 165.93H363.34C364.51 166.164 365.578 166.757 366.395 167.626C367.212 168.496 367.738 169.598 367.9 170.78C367.03 170.73 366.2 171.66 366.03 172.94V173.29L367.47 173.49ZM372.97 133.38C372.775 133.352 372.577 133.367 372.389 133.424C372.2 133.481 372.027 133.579 371.88 133.71C371.368 134.186 371.048 134.834 370.98 135.53V135.87L372.41 136.11C372.413 136.425 372.539 136.726 372.76 136.95L370.43 154.78H370.21C369.37 154.65 368.55 155.44 368.29 156.6L360.92 155.4C361.004 154.908 360.913 154.403 360.663 153.972C360.412 153.541 360.019 153.211 359.55 153.04H359.33L361.67 135.2C361.805 135.129 361.923 135.031 362.017 134.913C362.112 134.794 362.181 134.657 362.22 134.51L363.65 134.74V134.4C363.755 133.707 363.613 132.999 363.25 132.4C363.142 132.224 362.996 132.073 362.823 131.959C362.65 131.845 362.455 131.77 362.25 131.74H362.1C362.568 130.573 363.413 129.597 364.501 128.966C365.588 128.336 366.855 128.087 368.1 128.26H368.31C369.563 128.518 370.704 129.162 371.573 130.102C372.441 131.042 372.993 132.23 373.15 133.5L372.97 133.38ZM373.87 96.54L371 118.82L348.28 115.13L351.2 92.84C352.11 85.84 357.95 81.01 364.2 82.03C370.45 83.05 374.78 89.54 373.87 96.54Z" fill="#143F6B"/>
<path opacity="0.88" d="M345.49 354.41C343.777 355.835 342.669 357.858 342.39 360.07L342.11 362.22L339.69 361.83L339.98 359.67C340.265 357.423 339.725 355.149 338.46 353.27C337.77 352.216 336.869 351.316 335.814 350.628C334.759 349.94 333.573 349.477 332.33 349.27C331.176 349.079 329.996 349.125 328.86 349.403C327.724 349.682 326.656 350.188 325.722 350.891C324.787 351.594 324.004 352.479 323.422 353.493C322.839 354.507 322.467 355.628 322.33 356.79L322.04 358.93L319.36 358.5L319.64 356.35C319.982 353.947 319.438 351.502 318.11 349.47C317.554 348.599 316.822 347.854 315.961 347.282C315.1 346.71 314.129 346.325 313.11 346.15C312.114 345.991 311.096 346.053 310.126 346.332C309.157 346.61 308.26 347.097 307.5 347.76C305.693 349.309 304.539 351.485 304.27 353.85L304 356L301.5 355.59L301.79 353.44C302.27 349.79 301.03 346.26 298.7 344.44C297.21 355.8 291.31 400.84 291.22 401.52H291.92C292.35 399.52 293.66 398.09 295.01 398.31L295.43 398.38L300.43 362.73C300.504 362.759 300.581 362.779 300.66 362.79L303.32 363.23H303.55L299.21 398.99L299.64 399.06C300.178 399.225 300.655 399.546 301.011 399.982C301.367 400.418 301.586 400.95 301.64 401.51H312.82L318.04 365.59L318.27 365.65L320.93 366.09H321.17L316.86 401.51H333.66L338.26 368.88C338.334 368.91 338.411 368.931 338.49 368.94L341.14 369.38H341.39L337.48 401.5H346.29L352.65 352.56C352.54 352.56 352.44 352.49 352.33 352.47C351.118 352.288 349.88 352.367 348.701 352.702C347.521 353.036 346.427 353.619 345.49 354.41Z" fill="#143F6B"/>
</g>
</g>
<defs>
<clipPath id="clip0_80_103">
<rect width="669.87" height="404.18" fill="white" transform="translate(-125)"/>
</clipPath>
</defs>
</svg>
